# xmcd
#
# Track frame offsets:
#	150
#	16711
#	34747
#	50923
#	65981
#	79796
#	96609
#	112454
#	129136
#	146873
#	160158
#	174569
#	191563
#	204328
#	220899
#
# Disc length: 3175 seconds
#
# Revision: 1
# Processed by: cddbd v1.4PL0 Copyright (c) Steve Scherf et al.
# Submitted via: audiograbber 1.80
#
DISCID=e40c650f
DTITLE=Various Artist - Hott Trakks 75
DYEAR=1900
DGENRE=
TTITLE0=David Ball - She Always Talked About Mexico
TTITLE1=McBride and The Ride - Anything That Touches You
TTITLE2=Cyndi Thomson - I'm Gone
TTITLE3=Michelle Wright - Shut And Kiss Me
TTITLE4=Tracy Byrd - Ten Rounds With Jose Cuervo
TTITLE5=Montgomery Gentry - Didn't I
TTITLE6=Darryl Worley - I Miss My Friend
TTITLE7=Blake Shelton - Ol' Red
TTITLE8=Joe Diffie - This Pretender
TTITLE9=Hometown News - Minivan
TTITLE10=Chris LeDoux - Bareback Jack
TTITLE11=Jameson Clark - Still Smokin'
TTITLE12=Little Big town - Don't Waste My Time
TTITLE13=Meredith Edwards - Ready To Fall
TTITLE14=George Jones - 50,000 Names
EXTD=
EXTT0=
EXTT1=
EXTT2=
EXTT3=
EXTT4=
EXTT5=
EXTT6=
EXTT7=
EXTT8=
EXTT9=
EXTT10=
EXTT11=
EXTT12=
EXTT13=
EXTT14=
PLAYORDER=
